<mxfile host="app.diagrams.net" modified="2021-09-03T01:29:23.917Z" agent="5.0 (Windows NT 10.0; Win64; x64) AppleWebKit/537.36 (KHTML, like Gecko) Chrome/81.0.4044.138 Safari/537.36" etag="0iLuK7AVk-ZEMnooIlM1" version="15.0.5" type="github">
  <diagram id="C5RBs43oDa-KdzZeNtuy" name="Page-1">
    <mxGraphModel dx="2211" dy="731" grid="1" gridSize="10" guides="1" tooltips="1" connect="1" arrows="1" fold="1" page="1" pageScale="1" pageWidth="827" pageHeight="1169" background="#182E3E" math="0" shadow="0">
      <root>
        <mxCell id="WIyWlLk6GJQsqaUBKTNV-0" />
        <mxCell id="WIyWlLk6GJQsqaUBKTNV-1" parent="WIyWlLk6GJQsqaUBKTNV-0" />
        <mxCell id="IkaHGhUQ4Q9CL7noQv6P-7" value="Yes" style="edgeStyle=orthogonalEdgeStyle;rounded=0;orthogonalLoop=1;jettySize=auto;html=1;labelBackgroundColor=#182E3E;strokeColor=#FFFFFF;fontColor=#FFFFFF;" edge="1" parent="WIyWlLk6GJQsqaUBKTNV-1" source="IkaHGhUQ4Q9CL7noQv6P-5" target="IkaHGhUQ4Q9CL7noQv6P-6">
          <mxGeometry relative="1" as="geometry" />
        </mxCell>
        <mxCell id="IkaHGhUQ4Q9CL7noQv6P-9" value="No" style="edgeStyle=orthogonalEdgeStyle;rounded=0;orthogonalLoop=1;jettySize=auto;html=1;labelBackgroundColor=#182E3E;strokeColor=#FFFFFF;fontColor=#FFFFFF;" edge="1" parent="WIyWlLk6GJQsqaUBKTNV-1" source="IkaHGhUQ4Q9CL7noQv6P-5" target="IkaHGhUQ4Q9CL7noQv6P-8">
          <mxGeometry relative="1" as="geometry" />
        </mxCell>
        <mxCell id="IkaHGhUQ4Q9CL7noQv6P-5" value="Do you want to play Blackjack?" style="rhombus;whiteSpace=wrap;html=1;fillColor=#EEEEEE;strokeColor=#FFFFFF;fontColor=#1A1A1A;" vertex="1" parent="WIyWlLk6GJQsqaUBKTNV-1">
          <mxGeometry x="320" y="120" width="160" height="110" as="geometry" />
        </mxCell>
        <mxCell id="IkaHGhUQ4Q9CL7noQv6P-11" value="" style="edgeStyle=orthogonalEdgeStyle;rounded=0;orthogonalLoop=1;jettySize=auto;html=1;labelBackgroundColor=#182E3E;strokeColor=#FFFFFF;fontColor=#FFFFFF;" edge="1" parent="WIyWlLk6GJQsqaUBKTNV-1" source="IkaHGhUQ4Q9CL7noQv6P-6" target="IkaHGhUQ4Q9CL7noQv6P-10">
          <mxGeometry relative="1" as="geometry" />
        </mxCell>
        <mxCell id="IkaHGhUQ4Q9CL7noQv6P-6" value="New Game Starts.&lt;br&gt;Clear Screen.&lt;br&gt;Print Logo." style="whiteSpace=wrap;html=1;fillColor=#EEEEEE;strokeColor=#FFFFFF;fontColor=#1A1A1A;" vertex="1" parent="WIyWlLk6GJQsqaUBKTNV-1">
          <mxGeometry x="100" y="145" width="120" height="60" as="geometry" />
        </mxCell>
        <mxCell id="IkaHGhUQ4Q9CL7noQv6P-8" value="Game Ends" style="whiteSpace=wrap;html=1;fillColor=#EEEEEE;strokeColor=#FFFFFF;fontColor=#1A1A1A;" vertex="1" parent="WIyWlLk6GJQsqaUBKTNV-1">
          <mxGeometry x="580" y="145" width="120" height="60" as="geometry" />
        </mxCell>
        <mxCell id="IkaHGhUQ4Q9CL7noQv6P-33" value="" style="edgeStyle=orthogonalEdgeStyle;rounded=0;orthogonalLoop=1;jettySize=auto;html=1;labelBackgroundColor=#182E3E;strokeColor=#FFFFFF;fontColor=#FFFFFF;" edge="1" parent="WIyWlLk6GJQsqaUBKTNV-1" source="IkaHGhUQ4Q9CL7noQv6P-10" target="IkaHGhUQ4Q9CL7noQv6P-23">
          <mxGeometry relative="1" as="geometry" />
        </mxCell>
        <mxCell id="IkaHGhUQ4Q9CL7noQv6P-10" value="Randomly Deal 2 Cards to Player &amp;amp; Computer" style="whiteSpace=wrap;html=1;fillColor=#EEEEEE;strokeColor=#FFFFFF;fontColor=#1A1A1A;" vertex="1" parent="WIyWlLk6GJQsqaUBKTNV-1">
          <mxGeometry x="100" y="285" width="120" height="60" as="geometry" />
        </mxCell>
        <mxCell id="IkaHGhUQ4Q9CL7noQv6P-19" value="Yes" style="edgeStyle=orthogonalEdgeStyle;rounded=0;orthogonalLoop=1;jettySize=auto;html=1;labelBackgroundColor=#182E3E;strokeColor=#FFFFFF;fontColor=#FFFFFF;" edge="1" parent="WIyWlLk6GJQsqaUBKTNV-1" source="IkaHGhUQ4Q9CL7noQv6P-12" target="IkaHGhUQ4Q9CL7noQv6P-18">
          <mxGeometry x="-0.7334" y="20" relative="1" as="geometry">
            <mxPoint as="offset" />
          </mxGeometry>
        </mxCell>
        <mxCell id="IkaHGhUQ4Q9CL7noQv6P-39" value="" style="edgeStyle=orthogonalEdgeStyle;rounded=0;orthogonalLoop=1;jettySize=auto;html=1;labelBackgroundColor=#182E3E;strokeColor=#FFFFFF;fontColor=#FFFFFF;" edge="1" parent="WIyWlLk6GJQsqaUBKTNV-1" source="IkaHGhUQ4Q9CL7noQv6P-12" target="IkaHGhUQ4Q9CL7noQv6P-38">
          <mxGeometry relative="1" as="geometry" />
        </mxCell>
        <mxCell id="IkaHGhUQ4Q9CL7noQv6P-12" value="Does Computer have 21?" style="whiteSpace=wrap;html=1;fillColor=#EEEEEE;strokeColor=#FFFFFF;fontColor=#1A1A1A;" vertex="1" parent="WIyWlLk6GJQsqaUBKTNV-1">
          <mxGeometry x="100" y="910" width="120" height="60" as="geometry" />
        </mxCell>
        <mxCell id="IkaHGhUQ4Q9CL7noQv6P-21" value="" style="edgeStyle=orthogonalEdgeStyle;rounded=0;orthogonalLoop=1;jettySize=auto;html=1;labelBackgroundColor=#182E3E;strokeColor=#FFFFFF;fontColor=#FFFFFF;" edge="1" parent="WIyWlLk6GJQsqaUBKTNV-1" source="IkaHGhUQ4Q9CL7noQv6P-18" target="IkaHGhUQ4Q9CL7noQv6P-20">
          <mxGeometry relative="1" as="geometry" />
        </mxCell>
        <mxCell id="IkaHGhUQ4Q9CL7noQv6P-18" value="Player Loses" style="ellipse;whiteSpace=wrap;html=1;fillColor=#EEEEEE;strokeColor=#FFFFFF;fontColor=#1A1A1A;" vertex="1" parent="WIyWlLk6GJQsqaUBKTNV-1">
          <mxGeometry x="500" y="770" width="120" height="60" as="geometry" />
        </mxCell>
        <mxCell id="IkaHGhUQ4Q9CL7noQv6P-22" style="edgeStyle=orthogonalEdgeStyle;rounded=0;orthogonalLoop=1;jettySize=auto;html=1;entryX=0.5;entryY=1;entryDx=0;entryDy=0;labelBackgroundColor=#182E3E;strokeColor=#FFFFFF;fontColor=#FFFFFF;" edge="1" parent="WIyWlLk6GJQsqaUBKTNV-1" source="IkaHGhUQ4Q9CL7noQv6P-20" target="IkaHGhUQ4Q9CL7noQv6P-5">
          <mxGeometry relative="1" as="geometry">
            <Array as="points">
              <mxPoint x="560" y="320" />
              <mxPoint x="400" y="320" />
            </Array>
          </mxGeometry>
        </mxCell>
        <mxCell id="IkaHGhUQ4Q9CL7noQv6P-20" value="Restart Game" style="whiteSpace=wrap;html=1;fillColor=#EEEEEE;strokeColor=#FFFFFF;fontColor=#1A1A1A;" vertex="1" parent="WIyWlLk6GJQsqaUBKTNV-1">
          <mxGeometry x="500" y="425" width="120" height="60" as="geometry" />
        </mxCell>
        <mxCell id="IkaHGhUQ4Q9CL7noQv6P-28" value="" style="edgeStyle=orthogonalEdgeStyle;rounded=0;orthogonalLoop=1;jettySize=auto;html=1;labelBackgroundColor=#182E3E;strokeColor=#FFFFFF;fontColor=#FFFFFF;" edge="1" parent="WIyWlLk6GJQsqaUBKTNV-1" source="IkaHGhUQ4Q9CL7noQv6P-23" target="IkaHGhUQ4Q9CL7noQv6P-27">
          <mxGeometry relative="1" as="geometry" />
        </mxCell>
        <mxCell id="IkaHGhUQ4Q9CL7noQv6P-23" value="Calculate card sum" style="whiteSpace=wrap;html=1;fillColor=#EEEEEE;strokeColor=#FFFFFF;fontColor=#1A1A1A;" vertex="1" parent="WIyWlLk6GJQsqaUBKTNV-1">
          <mxGeometry x="100" y="450" width="120" height="60" as="geometry" />
        </mxCell>
        <mxCell id="IkaHGhUQ4Q9CL7noQv6P-30" value="Yes" style="edgeStyle=orthogonalEdgeStyle;rounded=0;orthogonalLoop=1;jettySize=auto;html=1;labelBackgroundColor=#182E3E;strokeColor=#FFFFFF;fontColor=#FFFFFF;" edge="1" parent="WIyWlLk6GJQsqaUBKTNV-1" source="IkaHGhUQ4Q9CL7noQv6P-27" target="IkaHGhUQ4Q9CL7noQv6P-29">
          <mxGeometry relative="1" as="geometry" />
        </mxCell>
        <mxCell id="IkaHGhUQ4Q9CL7noQv6P-36" value="No" style="edgeStyle=orthogonalEdgeStyle;rounded=0;orthogonalLoop=1;jettySize=auto;html=1;labelBackgroundColor=#182E3E;strokeColor=#FFFFFF;fontColor=#FFFFFF;" edge="1" parent="WIyWlLk6GJQsqaUBKTNV-1" source="IkaHGhUQ4Q9CL7noQv6P-27" target="IkaHGhUQ4Q9CL7noQv6P-35">
          <mxGeometry relative="1" as="geometry" />
        </mxCell>
        <mxCell id="IkaHGhUQ4Q9CL7noQv6P-27" value="Is there an Ace?" style="whiteSpace=wrap;html=1;fillColor=#EEEEEE;strokeColor=#FFFFFF;fontColor=#1A1A1A;" vertex="1" parent="WIyWlLk6GJQsqaUBKTNV-1">
          <mxGeometry x="100" y="555" width="120" height="60" as="geometry" />
        </mxCell>
        <mxCell id="IkaHGhUQ4Q9CL7noQv6P-50" value="Yes" style="edgeStyle=orthogonalEdgeStyle;rounded=0;orthogonalLoop=1;jettySize=auto;html=1;labelBackgroundColor=#182E3E;strokeColor=#FFFFFF;fontColor=#FFFFFF;" edge="1" parent="WIyWlLk6GJQsqaUBKTNV-1" source="IkaHGhUQ4Q9CL7noQv6P-29" target="IkaHGhUQ4Q9CL7noQv6P-49">
          <mxGeometry relative="1" as="geometry" />
        </mxCell>
        <mxCell id="IkaHGhUQ4Q9CL7noQv6P-52" value="No" style="edgeStyle=orthogonalEdgeStyle;rounded=0;orthogonalLoop=1;jettySize=auto;html=1;labelBackgroundColor=#182E3E;strokeColor=#FFFFFF;fontColor=#FFFFFF;" edge="1" parent="WIyWlLk6GJQsqaUBKTNV-1" source="IkaHGhUQ4Q9CL7noQv6P-29" target="IkaHGhUQ4Q9CL7noQv6P-51">
          <mxGeometry relative="1" as="geometry" />
        </mxCell>
        <mxCell id="IkaHGhUQ4Q9CL7noQv6P-29" value="Is the sum over 21?" style="whiteSpace=wrap;html=1;fillColor=#EEEEEE;strokeColor=#FFFFFF;fontColor=#1A1A1A;" vertex="1" parent="WIyWlLk6GJQsqaUBKTNV-1">
          <mxGeometry x="-180" y="555" width="120" height="60" as="geometry" />
        </mxCell>
        <mxCell id="IkaHGhUQ4Q9CL7noQv6P-37" value="" style="edgeStyle=orthogonalEdgeStyle;rounded=0;orthogonalLoop=1;jettySize=auto;html=1;labelBackgroundColor=#182E3E;strokeColor=#FFFFFF;fontColor=#FFFFFF;" edge="1" parent="WIyWlLk6GJQsqaUBKTNV-1" source="IkaHGhUQ4Q9CL7noQv6P-35" target="IkaHGhUQ4Q9CL7noQv6P-12">
          <mxGeometry relative="1" as="geometry" />
        </mxCell>
        <mxCell id="IkaHGhUQ4Q9CL7noQv6P-35" value="Print Player&#39;s Cards and Computer&#39;s first card" style="whiteSpace=wrap;html=1;fillColor=#EEEEEE;strokeColor=#FFFFFF;fontColor=#1A1A1A;" vertex="1" parent="WIyWlLk6GJQsqaUBKTNV-1">
          <mxGeometry x="100" y="750" width="120" height="60" as="geometry" />
        </mxCell>
        <mxCell id="IkaHGhUQ4Q9CL7noQv6P-43" value="Yes" style="edgeStyle=orthogonalEdgeStyle;rounded=0;orthogonalLoop=1;jettySize=auto;html=1;entryX=0.5;entryY=1;entryDx=0;entryDy=0;labelBackgroundColor=#182E3E;strokeColor=#FFFFFF;fontColor=#FFFFFF;" edge="1" parent="WIyWlLk6GJQsqaUBKTNV-1" source="IkaHGhUQ4Q9CL7noQv6P-38" target="IkaHGhUQ4Q9CL7noQv6P-18">
          <mxGeometry x="-0.7967" y="20" relative="1" as="geometry">
            <mxPoint as="offset" />
          </mxGeometry>
        </mxCell>
        <mxCell id="IkaHGhUQ4Q9CL7noQv6P-45" value="No" style="edgeStyle=orthogonalEdgeStyle;rounded=0;orthogonalLoop=1;jettySize=auto;html=1;labelBackgroundColor=#182E3E;strokeColor=#FFFFFF;fontColor=#FFFFFF;" edge="1" parent="WIyWlLk6GJQsqaUBKTNV-1" source="IkaHGhUQ4Q9CL7noQv6P-38" target="IkaHGhUQ4Q9CL7noQv6P-44">
          <mxGeometry relative="1" as="geometry" />
        </mxCell>
        <mxCell id="IkaHGhUQ4Q9CL7noQv6P-38" value="Did Player go over 21?" style="whiteSpace=wrap;html=1;fillColor=#EEEEEE;strokeColor=#FFFFFF;fontColor=#1A1A1A;" vertex="1" parent="WIyWlLk6GJQsqaUBKTNV-1">
          <mxGeometry x="100" y="1050" width="120" height="60" as="geometry" />
        </mxCell>
        <mxCell id="IkaHGhUQ4Q9CL7noQv6P-47" value="Yes" style="edgeStyle=orthogonalEdgeStyle;rounded=0;orthogonalLoop=1;jettySize=auto;html=1;labelBackgroundColor=#182E3E;strokeColor=#FFFFFF;fontColor=#FFFFFF;" edge="1" parent="WIyWlLk6GJQsqaUBKTNV-1" source="IkaHGhUQ4Q9CL7noQv6P-44" target="IkaHGhUQ4Q9CL7noQv6P-46">
          <mxGeometry relative="1" as="geometry" />
        </mxCell>
        <mxCell id="IkaHGhUQ4Q9CL7noQv6P-56" value="No" style="edgeStyle=orthogonalEdgeStyle;rounded=0;orthogonalLoop=1;jettySize=auto;html=1;labelBackgroundColor=#182E3E;strokeColor=#FFFFFF;fontColor=#FFFFFF;" edge="1" parent="WIyWlLk6GJQsqaUBKTNV-1" source="IkaHGhUQ4Q9CL7noQv6P-44" target="IkaHGhUQ4Q9CL7noQv6P-55">
          <mxGeometry relative="1" as="geometry" />
        </mxCell>
        <mxCell id="IkaHGhUQ4Q9CL7noQv6P-44" value="Would the player like to hit?" style="ellipse;whiteSpace=wrap;html=1;fillColor=#EEEEEE;strokeColor=#FFFFFF;fontColor=#1A1A1A;" vertex="1" parent="WIyWlLk6GJQsqaUBKTNV-1">
          <mxGeometry x="-120" y="1050" width="120" height="60" as="geometry" />
        </mxCell>
        <mxCell id="IkaHGhUQ4Q9CL7noQv6P-48" style="edgeStyle=orthogonalEdgeStyle;rounded=0;orthogonalLoop=1;jettySize=auto;html=1;entryX=0;entryY=0.5;entryDx=0;entryDy=0;labelBackgroundColor=#182E3E;strokeColor=#FFFFFF;fontColor=#FFFFFF;" edge="1" parent="WIyWlLk6GJQsqaUBKTNV-1" source="IkaHGhUQ4Q9CL7noQv6P-46" target="IkaHGhUQ4Q9CL7noQv6P-23">
          <mxGeometry relative="1" as="geometry">
            <Array as="points">
              <mxPoint x="-380" y="480" />
            </Array>
          </mxGeometry>
        </mxCell>
        <mxCell id="IkaHGhUQ4Q9CL7noQv6P-46" value="Randomly deal 1 new card to the player" style="whiteSpace=wrap;html=1;fillColor=#EEEEEE;strokeColor=#FFFFFF;fontColor=#1A1A1A;" vertex="1" parent="WIyWlLk6GJQsqaUBKTNV-1">
          <mxGeometry x="-440" y="1050" width="120" height="60" as="geometry" />
        </mxCell>
        <mxCell id="IkaHGhUQ4Q9CL7noQv6P-53" style="edgeStyle=orthogonalEdgeStyle;rounded=0;orthogonalLoop=1;jettySize=auto;html=1;entryX=0;entryY=0.5;entryDx=0;entryDy=0;labelBackgroundColor=#182E3E;strokeColor=#FFFFFF;fontColor=#FFFFFF;" edge="1" parent="WIyWlLk6GJQsqaUBKTNV-1" source="IkaHGhUQ4Q9CL7noQv6P-49" target="IkaHGhUQ4Q9CL7noQv6P-35">
          <mxGeometry relative="1" as="geometry">
            <Array as="points">
              <mxPoint x="-230" y="780" />
            </Array>
          </mxGeometry>
        </mxCell>
        <mxCell id="IkaHGhUQ4Q9CL7noQv6P-49" value="Count as 1" style="whiteSpace=wrap;html=1;fillColor=#EEEEEE;strokeColor=#FFFFFF;fontColor=#1A1A1A;" vertex="1" parent="WIyWlLk6GJQsqaUBKTNV-1">
          <mxGeometry x="-290" y="660" width="120" height="60" as="geometry" />
        </mxCell>
        <mxCell id="IkaHGhUQ4Q9CL7noQv6P-54" style="edgeStyle=orthogonalEdgeStyle;rounded=0;orthogonalLoop=1;jettySize=auto;html=1;entryX=0;entryY=0.5;entryDx=0;entryDy=0;labelBackgroundColor=#182E3E;strokeColor=#FFFFFF;fontColor=#FFFFFF;" edge="1" parent="WIyWlLk6GJQsqaUBKTNV-1" source="IkaHGhUQ4Q9CL7noQv6P-51" target="IkaHGhUQ4Q9CL7noQv6P-35">
          <mxGeometry relative="1" as="geometry">
            <Array as="points">
              <mxPoint x="-20" y="780" />
            </Array>
          </mxGeometry>
        </mxCell>
        <mxCell id="IkaHGhUQ4Q9CL7noQv6P-51" value="Count as 11" style="whiteSpace=wrap;html=1;fillColor=#EEEEEE;strokeColor=#FFFFFF;fontColor=#1A1A1A;" vertex="1" parent="WIyWlLk6GJQsqaUBKTNV-1">
          <mxGeometry x="-80" y="660" width="120" height="60" as="geometry" />
        </mxCell>
        <mxCell id="IkaHGhUQ4Q9CL7noQv6P-60" value="" style="edgeStyle=orthogonalEdgeStyle;rounded=0;orthogonalLoop=1;jettySize=auto;html=1;labelBackgroundColor=#182E3E;strokeColor=#FFFFFF;fontColor=#FFFFFF;" edge="1" parent="WIyWlLk6GJQsqaUBKTNV-1" source="IkaHGhUQ4Q9CL7noQv6P-55" target="IkaHGhUQ4Q9CL7noQv6P-59">
          <mxGeometry relative="1" as="geometry" />
        </mxCell>
        <mxCell id="IkaHGhUQ4Q9CL7noQv6P-55" value="Computer Draws Cards until Score is Over 16 and Stops After Over 21" style="whiteSpace=wrap;html=1;fillColor=#EEEEEE;strokeColor=#FFFFFF;fontColor=#1A1A1A;" vertex="1" parent="WIyWlLk6GJQsqaUBKTNV-1">
          <mxGeometry x="-120" y="1190" width="120" height="60" as="geometry" />
        </mxCell>
        <mxCell id="IkaHGhUQ4Q9CL7noQv6P-62" style="edgeStyle=orthogonalEdgeStyle;rounded=0;orthogonalLoop=1;jettySize=auto;html=1;entryX=0.5;entryY=0;entryDx=0;entryDy=0;labelBackgroundColor=#182E3E;strokeColor=#FFFFFF;fontColor=#FFFFFF;" edge="1" parent="WIyWlLk6GJQsqaUBKTNV-1" source="IkaHGhUQ4Q9CL7noQv6P-57" target="IkaHGhUQ4Q9CL7noQv6P-5">
          <mxGeometry relative="1" as="geometry">
            <Array as="points">
              <mxPoint x="-550" y="1480" />
              <mxPoint x="-550" y="80" />
              <mxPoint x="400" y="80" />
            </Array>
          </mxGeometry>
        </mxCell>
        <mxCell id="IkaHGhUQ4Q9CL7noQv6P-57" value="Print Final Cards, Sum and Outcome" style="ellipse;whiteSpace=wrap;html=1;fillColor=#EEEEEE;strokeColor=#FFFFFF;fontColor=#1A1A1A;" vertex="1" parent="WIyWlLk6GJQsqaUBKTNV-1">
          <mxGeometry x="-120" y="1450" width="120" height="60" as="geometry" />
        </mxCell>
        <mxCell id="IkaHGhUQ4Q9CL7noQv6P-61" value="" style="edgeStyle=orthogonalEdgeStyle;rounded=0;orthogonalLoop=1;jettySize=auto;html=1;labelBackgroundColor=#182E3E;strokeColor=#FFFFFF;fontColor=#FFFFFF;" edge="1" parent="WIyWlLk6GJQsqaUBKTNV-1" source="IkaHGhUQ4Q9CL7noQv6P-59" target="IkaHGhUQ4Q9CL7noQv6P-57">
          <mxGeometry relative="1" as="geometry" />
        </mxCell>
        <mxCell id="IkaHGhUQ4Q9CL7noQv6P-59" value="Calculate final sum and determine Win, Draw, Lose" style="whiteSpace=wrap;html=1;fillColor=#EEEEEE;strokeColor=#FFFFFF;fontColor=#1A1A1A;" vertex="1" parent="WIyWlLk6GJQsqaUBKTNV-1">
          <mxGeometry x="-120" y="1330" width="120" height="60" as="geometry" />
        </mxCell>
      </root>
    </mxGraphModel>
  </diagram>
</mxfile>
